# xmcd CD database file
#
# Track frame offsets:
#	150
#	18481
#	39304
#	60895
#	81513
#	99143
#	126966
#	141419
#	158344
#	177861
#
# Disc length: 2707 seconds
#
# Revision: 0
# Processed by: cddbd v1.5.2PL0 Copyright (c) Steve Scherf et al.
# Submitted via: CDex 1.51
#
DISCID=730a910a
DTITLE=Soneros All Stars - La Timba Soy Yo
DYEAR=2007
DGENRE=Salsa
TTITLE0=El Maraquero
TTITLE1=Tumba, bongò con las pailas
TTITLE2=Gloria eterna
TTITLE3=Conciencia
TTITLE4=Babalocha y Yalocha
TTITLE5=Para Oshosi un tambò
TTITLE6=Salì a buscar un corazòn
TTITLE7=Besos de miel
TTITLE8=De esa manera
TTITLE9=El Congo Fransisco
EXTD=YEAR: 2007
EXTT0=
EXTT1=
EXTT2=
EXTT3=
EXTT4=
EXTT5=
EXTT6=
EXTT7=
EXTT8=
EXTT9=
PLAYORDER=
